<svg xmlns="http://www.w3.org/2000/svg" version="1.1" xmlns:xlink="http://www.w3.org/1999/xlink" xmlns:svgjs="http://svgjs.dev/svgjs" width="1500" height="1500" viewBox="0 0 1500 1500"><rect width="1500" height="1500" fill="#000000"></rect><g transform="matrix(0.6666666666666666,0,0,0.6666666666666666,249.39393939393932,565.1789487211722)"><svg viewBox="0 0 396 147" data-background-color="#ffffff" preserveAspectRatio="xMidYMid meet" height="556" width="1500" xmlns="http://www.w3.org/2000/svg" xmlns:xlink="http://www.w3.org/1999/xlink"><g id="tight-bounds" transform="matrix(1,0,0,1,0.24000000000003752,-0.203162217659127)"><svg viewBox="0 0 395.5199999999999 147.40632443531825" height="147.40632443531825" width="395.5199999999999"><g><svg viewBox="0 0 395.52000000000004 147.40632443531828" height="147.40632443531825" width="395.5199999999999"><g><svg viewBox="0 0 395.52000000000004 147.40632443531828" height="147.40632443531828" width="395.52000000000004"><g id="textblocktransform"><svg viewBox="0 0 395.52000000000004 147.40632443531828" height="147.40632443531828" width="395.52000000000004" id="textblock"><g><svg viewBox="0 0 395.52000000000004 147.40632443531828" height="147.40632443531828" width="395.52000000000004"><g transform="matrix(1,0,0,1,0,0)"><svg width="395.52000000000004" viewBox="0.9 -35.55 97.39 36.3" height="147.40632443531828" data-palette-color="#336a86"><path d="M34.4-19.75L34.4-19.75Q34.4-15.05 31.85-9.63 29.3-4.2 25.75-0.4L25.75-0.4Q24.5 0.25 22.95 0.75L22.95 0.75Q20.65 0.2 18.8-9.4L18.8-9.4Q16.45-4.35 12.8-0.4L12.8-0.4Q11.55 0.25 10 0.75L10 0.75Q9.15 0.55 8.43-0.65 7.7-1.85 6.68-5.83 5.65-9.8 4.85-14.95 4.05-20.1 3.6-21.8L3.6-21.8Q2.4-22.2 0.9-22.2L0.9-22.2 0.9-23.25Q4.25-23.4 8-24.25L8-24.25 8.35-24.05Q7.95-22.65 7.95-20.93 7.95-19.2 8.65-14.83 9.35-10.45 10.15-7.13 10.95-3.8 11.4-3.05 11.85-2.3 12.35-2.3L12.35-2.3Q15-5.8 16.23-9.28 17.45-12.75 17.45-16.35 17.45-19.95 16.55-21.8L16.55-21.8Q15.35-22.2 13.85-22.2L13.85-22.2 13.85-23.25Q16.8-23.05 21.15-23.05L21.15-23.05Q30.2-23.05 36.2-24.55L36.2-24.55 36.4-23.65Q35.75-23.15 34-22.25L34-22.25Q34.4-20.95 34.4-19.75ZM26.55-22.15L26.55-22.15Q22.5-22.15 20.9-21.15L20.9-21.15Q20.9-19.2 21.6-14.83 22.3-10.45 23.1-7.13 23.9-3.8 24.35-3.05 24.8-2.3 25.3-2.3L25.3-2.3Q27.95-5.8 29.18-9.28 30.4-12.75 30.4-17.1L30.4-17.1Q30.4-19.6 29.35-21.7L29.35-21.7Q27.9-22.15 26.55-22.15ZM45.9-13.7L45.9-13.7 45.9-9.5Q45.9-4.1 46.25-1.5L46.25-1.5Q47.65-1.2 49.4-0.55L49.4-0.55 49.3 0.4Q46.5 0 44 0 41.5 0 38.95 0.3L38.95 0.3 38.8-0.65Q40.3-1.3 41.75-1.65L41.75-1.65Q42.2-5.05 42.2-9.5L42.2-9.5 42.2-13.7Q42.2-17.75 41.8-21.8L41.8-21.8Q40.5-22.2 39.1-22.2L39.1-22.2 39.1-23.25Q42.95-23.5 46.2-24.25L46.2-24.25 46.55-24.05Q45.9-20.2 45.9-13.7ZM46.8-31L46.8-31Q46.45-30.35 45.57-29.35 44.7-28.35 44.1-27.95L44.1-27.95Q43.5-28.35 42.62-29.35 41.75-30.35 41.4-31L41.4-31Q41.7-31.6 42.55-32.38 43.4-33.15 44.1-33.5L44.1-33.5Q44.75-33.1 45.6-32.33 46.45-31.55 46.8-31ZM60.15-20.85L60.05-11.5Q60.05-10.05 60.05-6.93 60.05-3.8 60.35-1.5L60.35-1.5Q61.75-1.2 63.5-0.55L63.5-0.55 63.4 0.4Q60.6 0 58.1 0 55.6 0 53.05 0.3L53.05 0.3 52.9-0.65Q54.4-1.3 55.85-1.65L55.85-1.65Q56.3-4.85 56.35-11.5L56.35-11.5 56.45-20.85Q56.45-22.15 56.45-25.53 56.45-28.9 56.1-32.45L56.1-32.45Q54.8-32.85 53.4-32.85L53.4-32.85 53.4-33.9Q58.4-34.25 62.95-35.55L62.95-35.55 63.2-34.65Q62.25-33.9 60.85-33.2L60.85-33.2Q60.25-29.9 60.15-20.85L60.15-20.85ZM75.04-20.85L74.94-11.5Q74.94-10.05 74.94-6.93 74.94-3.8 75.24-1.5L75.24-1.5Q76.64-1.2 78.39-0.55L78.39-0.55 78.29 0.4Q75.49 0 72.99 0 70.49 0 67.94 0.3L67.94 0.3 67.79-0.65Q69.29-1.3 70.74-1.65L70.74-1.65Q71.19-4.85 71.24-11.5L71.24-11.5 71.34-20.85Q71.34-22.15 71.34-25.53 71.34-28.9 70.99-32.45L70.99-32.45Q69.69-32.85 68.29-32.85L68.29-32.85 68.29-33.9Q73.29-34.25 77.84-35.55L77.84-35.55 78.09-34.65Q77.14-33.9 75.74-33.2L75.74-33.2Q75.14-29.9 75.04-20.85L75.04-20.85ZM85.19-5.5L85.19-5.5 85.29-3.4 85.29-3.2Q87.59-2.35 89.64-2.35 91.69-2.35 93.07-3.25 94.44-4.15 94.44-6.25L94.44-6.25Q94.44-7.8 89.19-10.5L89.19-10.5Q87.24-11.5 85.59-12.93 83.94-14.35 83.94-15.7L83.94-15.7Q83.94-18.35 86.77-21.03 89.59-23.7 92.09-24.25L92.09-24.25Q95.29-24.25 98.29-23.45L98.29-23.45 98.29-22.75Q96.34-20.35 96.14-17.5L96.14-17.5 95.04-17.5Q95.04-19.45 94.94-20.55L94.94-20.55Q92.99-21.15 91.24-21.15 89.49-21.15 88.12-20.48 86.74-19.8 86.74-18.3L86.74-18.3Q86.74-17.4 88.39-16.2 90.04-15 91.99-14.03 93.94-13.05 95.59-11.6 97.24-10.15 97.24-8.8L97.24-8.8Q97.24-5.75 94.47-2.93 91.69-0.1 88.84 0.75L88.84 0.75Q85.24 0.75 81.94-0.3L81.94-0.3 81.94-1Q83.89-3.4 84.09-6.25L84.09-6.25 85.19-6.25Q85.19-6.25 85.19-5.5Z" opacity="1" transform="matrix(1,0,0,1,0,0)" fill="#ffffff" class="wordmark-text-0" data-fill-palette-color="primary" id="text-0"></path></svg></g></svg></g></svg></g></svg></g></svg></g><defs></defs></svg><rect width="395.5199999999999" height="147.40632443531825" fill="none" stroke="none" visibility="hidden"></rect></g></svg></g></svg>